<?xml version="1.0" encoding="utf-8"?>
<!-- Generator: Adobe Illustrator 19.0.0, SVG Export Plug-In . SVG Version: 6.00 Build 0)  -->
<svg version="1.1" id="_x32_" xmlns="http://www.w3.org/2000/svg" xmlns:xlink="http://www.w3.org/1999/xlink" x="0px" y="0px"
	 viewBox="150 -150 800 800" enable-background="new 150 -150 800 800" xml:space="preserve">
<g>
	<path fill="#FFFFFF" d="M893.2,311.7l-64.7-137.1c0.2-4.1,0.3-8.2,0.3-12.4C828.8-10.2,689-150,516.5-150S204.3-10.2,204.3,162.2
		c0,97,44.2,183.6,113.5,240.9v110.4c0,10.8,6.4,20.5,16.3,24.7l258.6,109.7c8.3,3.5,17.7,2.6,25.3-2.3c7.5-5,12-13.4,12-22.4v-93.5
		c0-14.8,12-26.8,26.8-26.8h132.4c14.8,0,26.8-12,26.8-26.8v-80.6c0-10.3,5.9-19.6,15.1-24.1l49.4-24
		C893.8,340.9,899.4,325,893.2,311.7z M516.5,374.6c-117.3,0-212.3-95-212.3-212.3c0-117.3,95.1-212.3,212.3-212.3
		s212.3,95,212.3,212.3C728.8,279.5,633.8,374.6,516.5,374.6z"/>
	<path fill="#FFFFFF" d="M666.3,188.5c5.7-0.4,10.1-5.2,10.1-11v-26.2c0-5.8-4.4-10.5-10.1-11l-34.7-2.7c-2.2-0.1-4.1-1.5-4.9-3.6
		l-11.5-27.6c-0.8-2-0.5-4.4,1-6.1l22.7-26.5c3.7-4.3,3.5-10.8-0.6-14.9l-18.5-18.6c-4.1-4.1-10.6-4.3-14.9-0.6l-26.5,22.7
		c-1.7,1.4-4,1.8-6,1L544.6,52c-2.1-0.8-3.4-2.8-3.6-5l-2.7-34.7c-0.5-5.8-5.2-10.2-11-10.2h-26.2c-5.7,0-10.5,4.4-11,10.2
		l-2.7,34.7c-0.2,2.2-1.6,4.1-3.6,5l-27.6,11.5c-2.1,0.8-4.4,0.4-6.1-1l-26.5-22.7c-4.4-3.7-10.9-3.5-14.9,0.6L390.3,59
		c-4.1,4.1-4.3,10.5-0.6,14.9l22.7,26.5c1.4,1.7,1.8,4,1,6.1L401.9,134c-0.8,2.1-2.8,3.4-5,3.6l-34.7,2.7c-5.7,0.5-10.1,5.2-10.1,11
		v26.2c0,5.8,4.4,10.5,10.1,11l34.7,2.7c2.2,0.2,4.2,1.6,5,3.6l11.4,27.6c0.9,2,0.5,4.4-1,6l-22.7,26.5c-3.7,4.3-3.5,10.8,0.6,14.9
		l18.5,18.5c4.1,4.1,10.5,4.3,14.9,0.6l26.5-22.7c1.7-1.4,4-1.8,6.1-0.9l27.6,11.4c2.1,0.8,3.5,2.8,3.6,4.9l2.7,34.8
		c0.4,5.7,5.2,10.1,11,10.1h26.2c5.7,0,10.5-4.4,11-10.1l2.7-34.8c0.2-2.2,1.6-4.1,3.6-4.9l27.6-11.4c2-0.9,4.4-0.5,6,0.9l26.5,22.7
		c4.3,3.7,10.8,3.5,14.9-0.6l18.5-18.5c4.1-4.1,4.3-10.5,0.6-14.9l-22.7-26.5c-1.4-1.7-1.8-4-1-6l11.5-27.6c0.8-2.1,2.8-3.4,4.9-3.6
		L666.3,188.5z M514.2,219.2c-14.6,0-28.4-5.7-38.8-16.1s-16-24.1-16-38.7c0-14.6,5.7-28.4,16-38.8c10.4-10.4,24.1-16.1,38.8-16.1
		c14.6,0,28.4,5.7,38.8,16.1c10.4,10.4,16,24.1,16,38.8c0,14.6-5.7,28.4-16,38.7S528.9,219.2,514.2,219.2z"/>
</g>
</svg>
