<?xml version="1.0" encoding="utf-8"?>
<!-- Generator: Adobe Illustrator 19.0.0, SVG Export Plug-In . SVG Version: 6.00 Build 0)  -->
<svg version="1.1" id="_x32_" xmlns="http://www.w3.org/2000/svg" xmlns:xlink="http://www.w3.org/1999/xlink" x="0px" y="0px"
	 viewBox="150 -150 800 800" style="enable-background:new 150 -150 800 800;" xml:space="preserve">
<style type="text/css">
	.st0{fill:#FFFFFF;}
</style>
<g>
	<path class="st0" d="M348.6,237.2l78.2-120.2c0,0-116.8-46.4-171.2-4.8C201.2,153.9,150,269,150,269l58,33.6
		C208,302.7,281.4,160.4,348.6,237.2z"/>
	<path class="st0" d="M562.8,451.4l120.2-78.2c0,0,46.4,116.8,4.8,171.2C646.2,598.8,531,650,531,650l-33.6-58
		C497.4,592,639.6,518.6,562.8,451.4z"/>
	<path class="st0" d="M473,417l-20.6-20.6c-37.5,97.5-125.6,76.9-125.6,76.9s-20.6-88.1,76.9-125.6L383,327.1
		c-54.4-9.4-123.7,56.2-135,119.9c-11.2,63.7-13.1,118.1-13.1,118.1s54.3-1.9,118.1-13.1S482.3,471.4,473,417z"/>
	<path class="st0" d="M939.4-139.4c-85.1-39.9-300.5,34.7-420.3,193.6C427.9,175.2,379,256.7,379,256.7l72.5,72.5l19.2,19.2
		l72.5,72.5c0,0,81.6-48.8,202.6-140.1C904.7,161.1,979.3-54.4,939.4-139.4z M579.1,220.9c-20-20-20-52.5,0-72.5
		c20-20,52.5-20,72.5,0c20,20,20,52.5,0,72.5C631.6,240.9,599.1,240.9,579.1,220.9z M699.3,100.7c-25.9-25.9-25.9-67.8,0-93.7
		c25.9-25.9,67.8-25.9,93.7,0c25.9,25.9,25.9,67.8,0,93.7C767.1,126.6,725.2,126.6,699.3,100.7z"/>
</g>
</svg>
