<?xml version="1.0" encoding="utf-8"?>
<!-- Generator: Adobe Illustrator 19.0.0, SVG Export Plug-In . SVG Version: 6.00 Build 0)  -->
<svg version="1.1" id="Capa_1" xmlns="http://www.w3.org/2000/svg" xmlns:xlink="http://www.w3.org/1999/xlink" x="0px" y="0px"
	 viewBox="150 -150 800 800" style="enable-background:new 150 -150 800 800;" xml:space="preserve">
<style type="text/css">
	.st0{fill:#FFFFFF;stroke:#FFFFFF;}
</style>
<g id="SVGRepo_bgCarrier">
</g>
<g id="SVGRepo_tracerCarrier">
</g>
<g id="SVGRepo_iconCarrier">
	<g>
		<g>
			<path class="st0" d="M447.8,309.5c63.7,0,115.4-51.7,115.4-115.4S511.6,78.7,447.8,78.7s-115.4,51.6-115.4,115.4
				C332.4,257.8,384,309.5,447.8,309.5z M442.2,202.1c-22.1-8-36.4-18.1-36.4-37.7c0-18.1,12.6-32,33.9-35.8V108H457v19.6
				c13.2,0.4,22.3,3.6,29,6.9l-5.7,19.4c-5-2.3-14.3-7.2-28.6-7.2c-14.7,0-20,7.6-20,14.7c0,8.6,7.6,13.5,25.5,20.6
				c23.6,8.8,34.1,20.2,34.1,38.9c0,17.9-12.4,33.7-35.6,37.4V280h-17.3v-20.4c-13.3-0.4-26.5-4.2-34.1-9.2l5.7-19.8
				c8.2,4.8,20,9.3,32.8,9.3c13.3,0,22.3-6.5,22.3-16.6C465.1,213.9,457.7,207.8,442.2,202.1z"/>
			<path class="st0" d="M619.8,102.1c63.9,0,115.7-51.8,115.7-115.7s-51.8-115.7-115.7-115.7S504.1-77.5,504.1-13.6
				S555.9,102.1,619.8,102.1z M559-8.7h11.8c0-1.1,0-2.3,0-3.4c0-2.5,0.2-5.3,0.4-7.6H559v-13.1h14.1c2.5-12.9,8.2-23.9,15.8-31.9
				c11.4-12.7,26.8-19.8,45.6-19.8c12.7,0,23.2,3.2,30.2,6.5l-5.3,19.6c-5.5-2.9-14.1-5.7-23.6-5.7c-10.6,0-19.9,3.8-26.8,11.6
				c-4.4,4.6-7.6,11.6-9.3,19.6H655v13.1h-57.8c-0.4,2.3-0.4,4.9-0.4,7.4c0,1.3,0,2.3,0,3.6h58.3V4.1h-55.9
				c1.5,9.1,4.7,15.8,9.1,20.7c7.2,7.8,17.3,11.4,28.3,11.4c10.3,0,20-3.6,24.9-6.3l4.4,19c-7,4.2-18.8,8.4-32.3,8.4
				c-19.2,0-36.5-7.6-47.7-21.7c-6.8-7.8-11.4-18.4-13.3-31.5H559V-8.7L559-8.7z"/>
			<path class="st0" d="M850.4,155.5c55,0,99.6-44.6,99.6-99.6s-44.6-99.6-99.6-99.6s-99.6,44.6-99.6,99.6S795.3,155.5,850.4,155.5z
				 M827.3-3.2l15.3,32.9c3.3,6.7,5.3,12.4,7.6,18.2h0.4c2.2-5.5,4.5-11.8,7.6-18.5L874-3.2h23.6L865.8,50h22.5v11.1h-28.5v12.4
				h28.5v11.1h-28.5V115h-20.9V84.6h-28.3V73.5h28.3V61.2h-28.3V50.1h22.7L803.1-3.2H827.3z"/>
			<path class="st0" d="M631.8,240.9c0,56.8,46.1,102.9,102.9,102.9c56.9,0,102.9-46.1,102.9-102.9c0-56.9-46.1-102.9-102.9-102.9
				S631.8,184,631.8,240.9z M770.6,183.5l-4.1,17.5c-3.6-2.1-9-3.8-16.3-3.8c-13.9,0-19,9.4-19,20.3c0,6.4,0.9,11.5,2.1,16.9h26.3
				v16h-24.2c0.2,5.8,0.2,11.4-1.3,16.7c-1.9,6.4-5.6,11.8-10.9,16.5v0.4H776v19h-82.2v-12.6c11.3-5.2,21.2-16.5,21.2-29.8
				c0-3.6-0.2-6.6-0.7-10.1h-18.8v-16h16.1c-0.9-5.3-1.9-11.4-1.9-17.5c0-23.1,16.3-38.1,39.6-38.1
				C759.4,178.8,766.5,181.1,770.6,183.5z"/>
			<path class="st0" d="M899.6,376.3c-13.3-10.6-38.9-22.9-67.7-22.9c-24.3,0-59.6,8.8-89.6,50.8c-27,34.4-60.8,48.3-88.2,53.6
				c2.5-6.1,4.1-13.5,4.1-24c0.2-58.4-46.3-102.3-110.6-102.6l-229.7,0.2c-21.6,0-42.8,6.4-60.7,17.9v-29.9H150v309.9h107.2v-32.9
				c4.1,2,9.6,6.1,9.6,6.1c18.5,10.2,47.1,22.7,76.2,22.7h211c181.8,0,307.2-101.8,352.8-152.3c13.6-15.1,27.7-30.7,26.1-50.3
				C931.4,405,918.5,391.4,899.6,376.3z M221.3,387.9h-37.5v-37.5h37.5C221.3,350.5,221.3,387.9,221.3,387.9z M879,447.8
				c-42.2,46.7-158.2,139.9-324.9,139.9h-211c-35.7,0-74.1-27.9-74.4-28.2c-3.3-2.4-7.2-3.7-11.2-3.7c-0.1,0-0.2,0-0.3,0V390.7
				c4.1,0.1,8.2-1.1,11.6-3.7l4.1-3.1c12.7-9.7,28.7-15,44.9-15l229.6-0.2c36.6,0.2,73.5,21.2,73.3,64.9c0,25.3-16.8,26.6-17.8,26.8
				H434.6c-10.3,0-18.7,8.4-18.7,18.7c0,10.3,8.4,18.7,18.7,18.7h178.6h10c28,0,98.7-6.6,148.8-71c0.2-0.2,0.3-0.4,0.5-0.7
				c16.7-23.5,36.6-35.4,59.3-35.4c20.5,0,38,9.6,44.4,14.7c18.8,14.9,19.3,19.8,19.3,20C895.6,429.4,883.6,442.7,879,447.8z"/>
		</g>
	</g>
</g>
</svg>
