<?xml version="1.0" encoding="utf-8"?>
<!-- Generator: Adobe Illustrator 19.0.0, SVG Export Plug-In . SVG Version: 6.00 Build 0)  -->
<svg version="1.1" id="_x32_" xmlns="http://www.w3.org/2000/svg" xmlns:xlink="http://www.w3.org/1999/xlink" x="0px" y="0px"
	 viewBox="150 -150 800 800" style="enable-background:new 150 -150 800 800;" xml:space="preserve">
<style type="text/css">
	.st0{fill:#FFFFFF;stroke:#000000;}
</style>
<g id="SVGRepo_bgCarrier">
</g>
<g id="SVGRepo_tracerCarrier">
</g>
<g id="SVGRepo_iconCarrier">
	<g>
		<path class="st0" d="M657.4,122.8c-19.7-3.3-64.9-3.6-103,4.7c-2.4-1.6-4.9-3.3-7.3-4.8c-7.4-4.5-14.6-8.3-21.8-11.2
			c-7-2.8-13.9-4.7-21.1-5.1v0c-10.9-0.9-21.4-1.3-31.1-1.3c-14.8,0-27.4,0.8-36.7,2.4h0c-1.3,0.2-2.7,0.3-4.2,0.3
			c-8.1,0.1-19.2-3.7-29.4-9.3c-6.8-3.7-15.3-1.7-19.9,4.6L271.7,256.5c-3.8,5.2-3.9,12.3-0.4,17.7c2.8,4.2,5.2,8.6,6.7,13
			c2.2,6.2,5.5,11.8,9.2,17.3c3.7,5.5,8,10.8,12.5,15.8l1.8,1.7c0,0,8,6.6,20.8,17.1c-3.3,4.8-5.2,10.4-5.2,16.4
			c-0.1,7.9,2.9,15.3,8.4,21c5.6,5.7,13.1,8.9,21.1,8.9c5.6,0,11-1.6,15.6-4.6c-3.1,4.7-4.9,10.2-4.9,16c-0.1,7.9,2.9,15.3,8.4,20.9
			c5.6,5.7,13.1,8.9,21.1,8.9c6.3,0,12.2-2,17.3-5.7c-9.1,11.5-8.6,28.2,1.9,38.9c5.6,5.7,13.1,8.9,21.1,8.9h0
			c7.8,0,15.1-3,20.7-8.5l5.5-5.4c-2.3,4.2-3.6,8.8-3.7,13.7c-0.1,7.9,2.9,15.3,8.4,21c5.6,5.7,13.1,8.9,21.1,8.9
			c7.8,0,15.1-3,20.7-8.5l3.3-3.4c1.7,1.3,3.2,2.5,4.4,3.4c1,0.8,1.9,1.4,2.7,2l1.2,0.8l1.7,1c6.2,3.4,12.2,4.9,16.9,5.9
			c2.4,0.5,4.4,0.8,5.9,1l1.8,0.2l0.6,0.1l0.2,0l0.1,0l0.1,0l0.2,0c0.2,0,0.1,0,1,0l1.1,0c10.4-0.8,20.2-4.3,28.3-10.5
			c3.2-2.5,6-5.4,8.5-8.7c5,1.6,10.2,2.6,15.7,2.6c22.2,0,40.9-14.2,48.2-33.9c0.8-0.1,1.6-0.1,2.4-0.3c2.8,0.5,5.7,0.9,8.6,0.9
			c22.1,0,40.7-13.9,48.1-33.4c0,0,0.1-0.1,0.1-0.1l1.7,0.2c28.5,0,51.6-23.1,51.6-51.6c0-7.9-1.1-16.7-4.1-25.8
			c19.6-17.3,48.2-44,53.4-58.5c2.5-7,16.5-23.7,20.6-29.4L713.8,100.4C699.8,108.4,672.5,125.3,657.4,122.8z M723.3,366.2
			c0,11.4-9.2,20.6-20.6,20.6c-2.8,0-5.5-0.6-7.9-1.6c-0.2-0.1-0.5-0.1-0.7-0.2l-19.1-23.3c-4.8-5.6-13.3-6.2-18.9-1.4
			c-5.6,4.8-6.2,13.3-1.4,18.9l18.5,22.5c-1.2,10.3-9.8,18.3-20.4,18.3c-5,0-9.5-1.8-13.1-4.8L621.3,393c-4.8-5.6-13.3-6.2-18.9-1.4
			c-5.6,4.8-6.2,13.3-1.4,18.9l12.8,15.9c0,1-0.1,2,0.1,3c0.2,1.3,0.3,2.4,0.3,3.4c0,11.4-9.2,20.6-20.6,20.6c-3,0-5.7-0.7-8.2-1.8
			l-22.4-23.5c-5.4-5.1-13.9-4.8-19,0.6c-5.1,5.4-4.8,13.9,0.6,19L555,460c-1.1,2.3-2.5,4.3-4.6,5.9c-2.7,2.1-6.5,3.5-10.8,4
			c-1.2-0.2-2.9-0.5-5-0.9c-2.5-0.6-5.1-1.5-6.5-2.2c-0.5-0.3-1.7-1.2-3.4-2.6c-1-0.8-2.1-1.6-3.4-2.6c2.3-9.5-0.2-20-7.5-27.5
			c-5.6-5.7-13.1-8.9-21.1-8.9c-4.5,0-8.8,1.1-12.8,3l-0.1-0.1l0.1-0.2c5.6-5.5,8.8-12.9,8.9-20.8c0.1-7.9-2.9-15.3-8.4-20.9
			c-5.6-5.7-13.1-8.9-21.1-8.9c-6.3,0-12.2,2-17.2,5.6c4-5.1,6.4-11.3,6.5-17.9c0.1-7.9-2.9-15.3-8.4-20.9
			c-5.6-5.7-13.1-8.9-21.1-8.9c-7.8,0-15.1,3-20.7,8.5l-5,4.9c6.1-11.1,4.7-25.3-4.6-34.9c-5.6-5.7-13.1-8.9-21.1-8.9
			c-7.8,0-15.1,3-20.7,8.5l-3.3,3.3c-2.3-1.9-4.6-3.8-6.7-5.5c-7.6-6.3-12.9-10.6-15-12.3c-3.6-4.1-6.9-8.1-9.4-11.9
			c-2.8-4-4.7-7.7-5.6-10.2c-1.3-3.6-2.8-7.1-4.5-10.3l97.8-134.8c9.7,4,20.2,7.1,31.7,7.2c3,0,6.1-0.2,9.3-0.7h0
			c6.5-1.1,18.1-2,31.6-2c8.9,0,18.6,0.3,28.6,1.2l0.7,0c2.5,0.1,6.5,0.9,11.5,2.9l1.1,0.5c-41.8,18.9-100.9,55.1-120.4,61.6
			c-22.2,7.4-24.1,37,25.9,42.6c50,5.6,94.4-25.9,105.5-31.5c8-4,58.6,0.9,86.7,4c12.4,12.2,23.2,23.5,31.1,32.1l61.6,75.3l0.3,0.3
			c7.9,9.1,12.2,16.6,14.6,22.9C722.6,354.5,723.3,360,723.3,366.2z"/>
		<path class="st0" d="M947.9,208.8L799,3.5c-3.6-5-10.5-6.1-15.5-2.5l-65.9,47.8c-5,3.6-6.1,10.5-2.5,15.5L864,269.6
			c3.6,5,10.5,6.1,15.5,2.5l65.9-47.8C950.4,220.7,951.5,213.8,947.9,208.8z M897.2,227.2c-8.3,6-19.9,4.1-25.9-4.1
			c-6-8.3-4.2-19.8,4.1-25.8c8.3-6,19.8-4.2,25.9,4.1C907.4,209.6,905.5,221.2,897.2,227.2z"/>
		<path class="st0" d="M382.4,48.8L316.5,1c-5-3.6-11.9-2.5-15.5,2.5L152.1,208.8c-3.6,5-2.5,11.9,2.5,15.5l65.9,47.8
			c5,3.6,11.9,2.5,15.5-2.5L384.9,64.3C388.5,59.4,387.4,52.4,382.4,48.8z M338.4,71.8c-6,8.3-17.6,10.1-25.9,4.1
			c-8.3-6-10.1-17.6-4.1-25.8c6-8.3,17.6-10.1,25.9-4.1C342.5,51.9,344.4,63.5,338.4,71.8z"/>
	</g>
</g>
</svg>
