<?xml version="1.0" encoding="utf-8"?>
<!-- Generator: Adobe Illustrator 19.0.0, SVG Export Plug-In . SVG Version: 6.00 Build 0)  -->
<svg version="1.1" id="_x32_" xmlns="http://www.w3.org/2000/svg" xmlns:xlink="http://www.w3.org/1999/xlink" x="0px" y="0px"
	 viewBox="150 -150 800 800" style="enable-background:new 150 -150 800 800;" xml:space="preserve">
<style type="text/css">
	.st0{fill:#FFFFFF;stroke:#FFFFFF;stroke-width:0.9681;}
</style>
<g id="SVGRepo_bgCarrier">
</g>
<g id="SVGRepo_tracerCarrier">
</g>
<g id="SVGRepo_iconCarrier">
	<g>
		<path class="st0" d="M654,127c-19.1-3.2-62.8-3.5-99.7,4.6c-2.3-1.5-4.7-3.2-7.1-4.6c-7.2-4.4-14.1-8-21.1-10.8
			c-6.8-2.7-13.5-4.6-20.4-4.9l0,0c-10.6-0.9-20.7-1.3-30.1-1.3c-14.3,0-26.5,0.8-35.5,2.3l0,0c-1.3,0.2-2.6,0.3-4.1,0.3
			c-7.8,0.1-18.6-3.6-28.5-9c-6.6-3.6-14.8-1.6-19.3,4.5L280.6,256.4c-3.7,5-3.8,11.9-0.4,17.1c2.7,4.1,5,8.3,6.5,12.6
			c2.1,6,5.3,11.4,8.9,16.7s7.7,10.5,12.1,15.3l1.7,1.6c0,0,7.7,6.4,20.1,16.6c-3.2,4.6-5,10.1-5,15.9c-0.1,7.6,2.8,14.8,8.1,20.3
			c5.4,5.5,12.7,8.6,20.4,8.6c5.4,0,10.6-1.5,15.1-4.5c-3,4.6-4.7,9.9-4.7,15.5c-0.1,7.6,2.8,14.8,8.1,20.2
			c5.4,5.5,12.7,8.6,20.4,8.6c6.1,0,11.8-1.9,16.7-5.5c-8.8,11.1-8.3,27.3,1.8,37.7c5.4,5.5,12.7,8.6,20.4,8.6l0,0
			c7.6,0,14.6-2.9,20-8.2l5.3-5.2c-2.2,4.1-3.5,8.5-3.6,13.3c-0.1,7.6,2.8,14.8,8.1,20.3c5.4,5.5,12.7,8.6,20.4,8.6
			c7.6,0,14.6-2.9,20-8.2l3.2-3.3c1.6,1.3,3.1,2.4,4.3,3.3c1,0.8,1.8,1.4,2.6,1.9l1.2,0.8l1.6,1c6,3.3,11.8,4.7,16.4,5.7
			c2.3,0.5,4.3,0.8,5.7,1l1.7,0.2l0.6,0.1h0.2h0.1h0.1h0.2c0.2,0,0.1,0,1,0h1.1c10.1-0.8,19.6-4.2,27.4-10.2
			c3.1-2.4,5.8-5.2,8.2-8.4c4.8,1.5,9.9,2.5,15.2,2.5c21.5,0,39.6-13.7,46.7-32.8c0.8-0.1,1.5-0.1,2.3-0.3c2.7,0.5,5.5,0.9,8.3,0.9
			c21.4,0,39.4-13.5,46.6-32.3l0.1-0.1l1.6,0.2c27.6,0,50-22.4,50-50c0-7.6-1.1-16.2-4-25c19-16.7,46.7-42.6,51.7-56.6
			c2.4-6.8,16-22.9,19.9-28.5L708.6,105.3C695,113,668.6,129.4,654,127z M717.8,362.6c0,11-8.9,19.9-19.9,19.9
			c-2.7,0-5.3-0.6-7.6-1.5c-0.2-0.1-0.5-0.1-0.7-0.2L671,358.2c-4.6-5.4-12.9-6-18.3-1.4c-5.4,4.6-6,12.9-1.4,18.3l17.9,21.8
			c-1.2,10-9.5,17.7-19.7,17.7c-4.8,0-9.2-1.7-12.7-4.6L619,388.5c-4.6-5.4-12.9-6-18.3-1.4c-5.4,4.6-6,12.9-1.4,18.3l12.4,15.4
			c0,1-0.1,1.9,0.1,2.9c0.2,1.3,0.3,2.3,0.3,3.3c0,11-8.9,19.9-19.9,19.9c-2.9,0-5.5-0.7-7.9-1.7l-21.7-22.8
			c-5.2-4.9-13.5-4.6-18.4,0.6c-4.9,5.2-4.6,13.5,0.6,18.4l10.1,11.9c-1.1,2.2-2.4,4.2-4.5,5.7c-2.6,2-6.3,3.4-10.5,3.9
			c-1.2-0.2-2.8-0.5-4.8-0.9c-2.4-0.6-4.9-1.5-6.3-2.1c-0.5-0.3-1.6-1.2-3.3-2.5c-1-0.8-2-1.5-3.3-2.5c2.2-9.2-0.2-19.4-7.3-26.6
			c-5.4-5.5-12.7-8.6-20.4-8.6c-4.4,0-8.5,1.1-12.4,2.9l-0.1-0.1l0.1-0.2c5.4-5.3,8.5-12.5,8.6-20.1c0.1-7.6-2.8-14.8-8.1-20.2
			c-5.4-5.5-12.7-8.6-20.4-8.6c-6.1,0-11.8,1.9-16.7,5.4c3.9-4.9,6.2-10.9,6.3-17.3c0.1-7.6-2.8-14.8-8.1-20.2
			c-5.4-5.5-12.7-8.6-20.4-8.6c-7.6,0-14.6,2.9-20,8.2l-4.8,4.7c5.9-10.7,4.6-24.5-4.5-33.8c-5.4-5.5-12.7-8.6-20.4-8.6
			c-7.6,0-14.6,2.9-20,8.2l-3.2,3.2c-2.2-1.8-4.5-3.7-6.5-5.3c-7.4-6.1-12.5-10.3-14.5-11.9c-3.5-4-6.7-7.8-9.1-11.5
			c-2.7-3.9-4.6-7.5-5.4-9.9c-1.3-3.5-2.7-6.9-4.4-10l94.7-130.5c9.4,3.9,19.6,6.9,30.7,7c2.9,0,5.9-0.2,9-0.7l0,0
			c6.3-1.1,17.5-1.9,30.6-1.9c8.6,0,18,0.3,27.7,1.2h0.7c2.4,0.1,6.3,0.9,11.1,2.8l1.1,0.5c-40.5,18.3-97.7,53.3-116.6,59.6
			c-21.5,7.2-23.3,35.8,25.1,41.2s91.4-25.1,102.1-30.5c7.7-3.9,56.7,0.9,83.9,3.9c12,11.8,22.5,22.8,30.1,31.1l59.6,72.9l0.3,0.3
			c7.6,8.8,11.8,16.1,14.1,22.2C717.1,351.3,717.8,356.6,717.8,362.6z"/>
		<path class="st0" d="M935.2,210.2L791.1,11.5c-3.5-4.8-10.2-5.9-15-2.4l-63.8,46.3c-4.8,3.5-5.9,10.2-2.4,15L854,269.1
			c3.5,4.8,10.2,5.9,15,2.4l63.8-46.3C937.6,221.7,938.7,215.1,935.2,210.2z M886.1,228c-8,5.8-19.3,4-25.1-4c-5.8-8-4.1-19.2,4-25
			c8-5.8,19.2-4.1,25.1,4C896,211,894.2,222.2,886.1,228z"/>
		<path class="st0" d="M387.7,55.3L323.9,9c-4.8-3.5-11.5-2.4-15,2.4L164.8,210.2c-3.5,4.8-2.4,11.5,2.4,15l63.8,46.3
			c4.8,3.5,11.5,2.4,15-2.4L390.2,70.3C393.6,65.6,392.6,58.8,387.7,55.3z M345.1,77.6c-5.8,8-17,9.8-25.1,4s-9.8-17-4-25
			c5.8-8,17-9.8,25.1-4C349.1,58.3,351,69.5,345.1,77.6z"/>
	</g>
</g>
</svg>
