<?xml version="1.0" encoding="utf-8"?>
<!-- Generator: Adobe Illustrator 19.0.0, SVG Export Plug-In . SVG Version: 6.00 Build 0)  -->
<svg version="1.1" id="Layer_1" xmlns="http://www.w3.org/2000/svg" xmlns:xlink="http://www.w3.org/1999/xlink" x="0px" y="0px"
	 viewBox="0 0 500 500" enable-background="new 0 0 500 500" xml:space="preserve">
<g id="SVGRepo_iconCarrier_1_">
	<path id="XMLID_13_" stroke="#000000" stroke-width="3.308096e-003" d="M341.9,8.1c-21.4,0.2-43.9,2.8-66.5,7.4
		c-34.6,7-69.8,18.6-102.8,34.3c-9.3-6.7-21-10.3-32.9-10.2c-13.1,0-26,4.4-35.6,12.6c-9.7,8.2-15.6,19.8-15.5,32
		c0,5.7,1.3,11.2,3.6,16.3c-24.4,20.2-44.9,43.2-59.4,68.6c-15.1,26.5-15.2,54.5-3.5,75.6c11.7,21.1,35,35,63.2,34.9
		c28.8-0.1,60.4-15.9,93.9-34.5c33.5-18.5,68.8-40.3,101.8-54.1c31.4-13.2,86.4-18.3,131.1-28.4c22.4-5,42.4-11.1,56.7-22
		c7.2-5.4,13-12.3,16-20.7c3-8.4,2.8-18.1-0.3-28.1c-11.9-38.9-42.9-63.5-81.8-75.1c-19.5-5.8-41-8.5-63.7-8.6
		C344.7,8.1,343.3,8.1,341.9,8.1L341.9,8.1z M342,26.3c1.3,0,2.7,0,4,0c21.3,0.1,41.2,2.6,58.6,7.8c34.9,10.3,59.6,30.2,69.6,62.9
		c2.2,7.2,2,12.4,0.5,16.8c-1.5,4.4-4.6,8.4-9.7,12.2c-10.2,7.7-28.4,14-49.8,18.8c-36.5,8.2-81.9,12.6-117.1,23.3
		c-31.5-26.7-69.6-50.4-109.4-71.2c1.5-4.2,2.3-8.6,2.3-13.1c0-7-2-13.7-5.4-19.8c30.1-13.9,62.1-24.5,93.4-30.8
		C300.6,28.9,321.9,26.5,342,26.3L342,26.3z M139.6,57.7c4.4,0,8.9,0.8,13,2.2c-6.3,3.4-12.5,6.9-18.5,10.6
		c-5.1-2.3-10.3-4.6-15.4-6.8C124.5,60,132.1,57.7,139.6,57.7z M169.2,72.1c2.4,3.8,3.7,7.9,3.7,11.8c0,1.5-0.2,3.1-0.6,4.6
		c-5.9-2.9-11.8-5.8-17.7-8.6C159.4,77.2,164.3,74.6,169.2,72.1z M107.4,78.6c2.9,1.2,5.7,2.4,8.6,3.7c-3,2.1-5.9,4.2-8.8,6.3
		c-0.4-1.5-0.5-3-0.6-4.5C106.6,82.3,106.8,80.4,107.4,78.6L107.4,78.6z M135.9,91.3c8.6,4,17.2,8.1,25.7,12.3
		c-5.9,4.1-13.9,6.7-21.9,6.7c-8,0-16-2.5-21.9-6.6C123.7,99.4,129.7,95.3,135.9,91.3L135.9,91.3z M179.1,112.4
		c36,18.7,70.4,39.8,99.2,62.9c-34.1,14.7-68.7,36.1-100.8,53.8c-33,18.2-63.5,32.1-85.3,32.2c-22.4,0.1-38.7-10.2-47.1-25.5
		c-8.4-15.3-9.1-35.9,3.4-57.8c13-22.8,31.9-44,54.6-62.8c0.3,0.3,0.6,0.6,1,0.9c9.7,8.1,22.6,12.4,35.7,12.4
		c13.1,0,26-4.4,35.6-12.6C176.8,114.8,178,113.6,179.1,112.4L179.1,112.4z M325.5,192.9c-5-0.1-9.2,3.9-9.3,8.9
		c-0.1,2.8,1.2,5.4,3.3,7.2c56.6,48.1,86.4,86,98.1,126.1c11.6,40,5.5,83.9-13.5,145.1c-1.5,4.8,1.2,9.9,6,11.4
		c4.8,1.5,9.9-1.2,11.4-6c19.4-62.5,26.7-110.4,13.6-155.5c-13.1-45.1-46-85.7-103.8-134.8C329.7,193.8,327.6,193,325.5,192.9
		L325.5,192.9z"/>
</g>
</svg>
