<svg width="225" height="80" viewBox="0 0 225 80" fill="none" xmlns="http://www.w3.org/2000/svg">
<g clip-path="url(#clip0)">
<path fill-rule="evenodd" clip-rule="evenodd" d="M46.6248 19.2499C34.4998 19.2499 25.3748 28.1249 25.3748 39.9999C25.3748 51.8749 34.4998 60.7499 46.6248 60.7499C58.7498 60.7499 67.8748 51.8749 67.8748 39.9999C67.8748 28.1249 58.7498 19.2499 46.6248 19.2499ZM46.6248 29.2499C52.7498 29.2499 57.1248 33.6249 57.1248 39.9999C57.1248 46.3749 52.7498 50.7499 46.6248 50.7499C40.4998 50.7499 36.1248 46.3749 36.1248 39.9999C36.1248 33.6249 40.4998 29.2499 46.6248 29.2499ZM93.4998 19.2499C81.3748 19.2499 72.2497 28.1249 72.2497 39.9999C72.2497 51.8749 81.2498 60.7499 93.4998 60.7499C105.625 60.7499 114.75 51.8749 114.75 39.9999C114.75 28.1249 105.625 19.2499 93.4998 19.2499ZM93.4998 29.2499C99.6248 29.2499 104 33.6249 104 39.9999C104 46.3749 99.6248 50.7499 93.4998 50.7499C87.3748 50.7499 82.9998 46.3749 82.9998 39.9999C82.9998 33.6249 87.3748 29.2499 93.4998 29.2499Z" fill="#5BB50E"/>
<path fill-rule="evenodd" clip-rule="evenodd" d="M141.75 60.75C153.75 60.75 162.375 51.875 162.375 40C162.375 28.125 153.75 19.25 141.75 19.25C137.75 19.25 134 20.5 131 22.5V6.25H120.375V59.625H128.25L129.5 56.375C132.75 59.125 137 60.75 141.75 60.75ZM151.625 40C151.625 46.125 147 50.75 140.875 50.75C134.75 50.75 130.125 46.125 130.125 40C130.125 33.875 134.75 29.25 140.875 29.25C147.125 29.25 151.625 33.875 151.625 40ZM3.375 63.9998H0V73.7498H5C13.625 73.7498 19.75 67.6248 19.75 58.9998V20.3748H9.125V58.2498C9.125 61.9998 7.125 63.9998 3.375 63.9998ZM168 6.25H178.625V59.625H168V6.25ZM224.75 42.9999C224.875 41.9999 225 40.8749 225 39.8749C225 28.6249 216.75 19.2499 204.625 19.2499C193 19.2499 184.25 28.1249 184.25 39.9999C184.25 51.7499 193 60.7499 204.625 60.7499C213.75 60.7499 221.25 55.2499 224.125 46.7499H213C211.375 49.4999 208.375 51.2499 204.625 51.2499C199.5 51.2499 195.875 48.3749 195 42.9999H224.75ZM214.375 35.7499H195.376C196.626 31.1249 199.875 28.3749 204.625 28.3749C209.375 28.3749 212.875 30.9999 214.375 35.7499Z" fill="#0B71D9"/>
</g>
<defs>
<clipPath id="clip0">
<rect width="225" height="80" fill="white"/>
</clipPath>
</defs>
</svg>