<?xml version="1.0" encoding="iso-8859-1"?>
<!-- Uploaded to: SVG Repo, www.svgrepo.com, Generator: SVG Repo Mixer Tools -->
<svg height="800px" width="800px" version="1.1" id="Layer_1" xmlns="http://www.w3.org/2000/svg" xmlns:xlink="http://www.w3.org/1999/xlink" 
	 viewBox="0 0 512 512" xml:space="preserve">
<g>
	<g>
		<g>
			<path style="fill:#231F20;" d="M94.432,139.492H19.231C8.61,139.492,0,148.103,0,158.723v138.71
				c0,10.62,8.61,19.231,19.231,19.231h75.201c9.733,0,17.756-7.238,19.033-16.621L231,335.009v-213.86l-117.535,34.965
				C112.188,146.729,104.165,139.492,94.432,139.492z"/>
			<path style="fill:#231F20;" d="M349.482,78.436h-60.79c-10.621,0-19.231,8.61-19.231,19.231v260.822
				c0,10.621,8.61,19.231,19.231,19.231h60.79c10.621,0,19.231-8.61,19.231-19.231V97.667
				C368.713,87.046,360.103,78.436,349.482,78.436z"/>
			<path style="fill:#231F20;" d="M492.769,208.847h-75.828c-10.621,0-19.231,8.61-19.231,19.231
				c0,10.621,8.61,19.231,19.231,19.231h75.828c10.62,0,19.231-8.61,19.231-19.231C512,217.458,503.391,208.847,492.769,208.847z"/>
			<path style="fill:#231F20;" d="M428.687,172.483l53.619-53.619c7.51-7.51,7.51-19.686,0-27.196c-7.509-7.51-19.686-7.51-27.196,0
				l-53.619,53.619c-7.51,7.51-7.51,19.687,0,27.196C409,179.994,421.178,179.995,428.687,172.483z"/>
			<path style="fill:#231F20;" d="M428.687,283.673c-7.509-7.51-19.686-7.51-27.196,0s-7.51,19.686,0,27.196l53.619,53.619
				c7.509,7.51,19.686,7.512,27.196,0c7.51-7.51,7.51-19.686,0-27.196L428.687,283.673z"/>
			<path style="fill:#231F20;" d="M127.82,414.333c0,10.621,8.61,19.231,19.231,19.231h57.459c10.621,0,19.231-8.61,19.231-19.231
				v-41.356l-95.921-28.536V414.333z"/>
		</g>
	</g>
</g>
</svg>