<?xml version="1.0" encoding="utf-8"?>
<!-- Generator: Adobe Illustrator 19.0.0, SVG Export Plug-In . SVG Version: 6.00 Build 0)  -->
<svg version="1.1" id="Layer_1" xmlns="http://www.w3.org/2000/svg" xmlns:xlink="http://www.w3.org/1999/xlink" x="0px" y="0px"
	 viewBox="150 -150 800 800" style="enable-background:new 150 -150 800 800;" xml:space="preserve">
<style type="text/css">
	.st0{fill:#FFFFFF;}
</style>
<g>
	<g>
		<g>
			<path class="st0" d="M297.5,68H180c-16.6,0-30,13.5-30,30v216.7c0,16.6,13.5,30,30,30h117.5c15.2,0,27.7-11.3,29.7-26l183.6,54.6
				V39.3L327.3,93.9C325.3,79.3,312.8,68,297.5,68z"/>
			<path class="st0" d="M696.1-27.4h-95c-16.6,0-30,13.5-30,30v407.5c0,16.6,13.5,30,30,30h95c16.6,0,30-13.5,30-30V2.6
				C726.1-14,712.7-27.4,696.1-27.4z"/>
			<path class="st0" d="M920,176.3H801.5c-16.6,0-30,13.5-30,30s13.5,30,30,30H920c16.6,0,30-13.5,30-30
				C950,189.8,936.5,176.3,920,176.3z"/>
			<path class="st0" d="M819.8,119.5l83.8-83.8c11.7-11.7,11.7-30.8,0-42.5c-11.7-11.7-30.8-11.7-42.5,0L777.3,77
				c-11.7,11.7-11.7,30.8,0,42.5C789.1,131.2,808.1,131.2,819.8,119.5z"/>
			<path class="st0" d="M819.8,293.2c-11.7-11.7-30.8-11.7-42.5,0c-11.7,11.7-11.7,30.8,0,42.5l83.8,83.8
				c11.7,11.7,30.8,11.7,42.5,0c11.7-11.7,11.7-30.8,0-42.5L819.8,293.2z"/>
			<path class="st0" d="M349.7,497.4c0,16.6,13.5,30,30,30h89.8c16.6,0,30-13.5,30-30v-64.6l-149.9-44.6V497.4z"/>
		</g>
	</g>
</g>
</svg>
