<?xml version="1.0" encoding="utf-8"?>
<!-- Generator: Adobe Illustrator 19.0.0, SVG Export Plug-In . SVG Version: 6.00 Build 0)  -->
<svg version="1.1" id="katman_1" xmlns="http://www.w3.org/2000/svg" xmlns:xlink="http://www.w3.org/1999/xlink" x="0px" y="0px"
	 viewBox="97.1 51.1 506.6 116.6" enable-background="new 97.1 51.1 506.6 116.6" xml:space="preserve">
<g>
	<circle fill="#644A98" cx="155.4" cy="109.4" r="58.3"/>
	<path fill="#FFFFFF" d="M179.7,85.1l-24.3,22.7l-24.3-22.7v48.6h11v-23.5l13.3,11.8l13.3-11.8v23.5h11
		C179.7,133.7,179.7,85.1,179.7,85.1z"/>
</g>
<g>
	<path fill="#644A98" d="M420.1,138.1l-28.3-23.4v22.8h-11.3V90.8l28.3,23.4V91.4h11.3V138.1 M494.7,137.4h-11.6v-35.3h-10.6V91.4
		h32.8v10.7h-10.6L494.7,137.4 M546.5,137.4h-29.1v-46h28.8v10.7h-17.4v7h13.9v10.5h-13.9v7.2h17.7V137.4 M585.9,114.9
		c2.5-0.9,10.9-4.6,10.9-15.3c0-7.7-6.1-16.3-19.2-16.3h-17v54.1h11.7V116h0.6l16.8,21.4h14L585.9,114.9L585.9,114.9z M579.3,105.6
		h-7V94.2h7c3.7,0,6.2,2.5,6.2,5.7C585.4,102.7,583.4,105.6,579.3,105.6z M307.4,80.6L281.1,107l-26.3-26.4v56.8h11.7v-28.6
		l14.6,14.7l14.6-14.7v28.6h11.7V80.6 M448,138.1c-10.5,0-16-5.9-16.9-6.8l5.9-8.4c0.9,0.8,5.1,4.5,10.6,4.5c3.8,0,4.8-1.8,4.8-3.2
		c0-1.5-1.1-2.8-5.1-4.3l-3.5-1.3c-6.4-2.4-10.5-6.9-10.5-13.5c0-8.2,6.5-14.4,15.8-14.4c8.4,0,13.1,4,13.6,4.5l-5.5,8.6
		c-1.1-0.8-4.3-2.5-7.7-2.5c-3.2,0-4.7,1.4-4.7,3c0,2.2,1.9,3.1,5.3,4.3l3.2,1.2c6.6,2.5,10.8,7.5,10.8,13.6
		C464.1,131.8,457.5,138.1,448,138.1"/>
	<path fill="#19B3B2" d="M344,90.7c-13.4,0-23.9,10.6-23.9,23.7c0,13.1,10.6,23.7,23.9,23.7c13.4,0,23.9-10.6,23.9-23.7
		S357.4,90.7,344,90.7 M344,127c-7.1,0-12.5-5.6-12.5-12.6s5.4-12.6,12.5-12.6c7,0,12.5,5.6,12.5,12.6S351,127,344,127"/>
</g>
</svg>
