<?xml version="1.0" encoding="utf-8"?>
<!-- Generator: Adobe Illustrator 19.0.0, SVG Export Plug-In . SVG Version: 6.00 Build 0)  -->
<svg version="1.1" id="Layer_1" xmlns="http://www.w3.org/2000/svg" xmlns:xlink="http://www.w3.org/1999/xlink" x="0px" y="0px"
	 viewBox="0 0 500 500" enable-background="new 0 0 500 500" xml:space="preserve">
<linearGradient id="XMLID_34_" gradientUnits="userSpaceOnUse" x1="0" y1="250" x2="500" y2="250">
	<stop  offset="0" style="stop-color:#E6A309"/>
	<stop  offset="0.2463" style="stop-color:#E04807"/>
	<stop  offset="0.5049" style="stop-color:#E60060"/>
	<stop  offset="0.7488" style="stop-color:#722FD6"/>
	<stop  offset="1" style="stop-color:#3073E6"/>
</linearGradient>
<rect id="XMLID_1_" fill="url(#XMLID_34_)" width="500" height="500"/>
<g id="XMLID_2_">
	<rect id="XMLID_10_" y="247.3" fill="none" width="500" height="197.5"/>
	<path id="XMLID_5_" fill="#FFFFFF" d="M108,405.1c0,9.9,1.9,16.8,5.6,20.7c3.7,3.9,10.3,6,19.8,6.2l0.1,6.8H26.4V432
		c8.7-0.3,14.8-2.4,18.4-6.5c3.6-4.1,5.4-10.9,5.4-20.4V286.7c0-9.5-1.8-16.3-5.4-20.3s-9.7-6.2-18.4-6.6v-6.8h102.8
		c25.1,0,44.2,4.3,57.3,12.8c13.1,8.5,19.7,20.9,19.7,37.1c0,11-3.3,20.5-9.8,28.6c-6.6,8.1-15.7,13.8-27.4,17.1l36.9,64.4
		c3.9,7,7.6,11.9,11,14.4c3.4,2.6,7.6,4.1,12.5,4.5v6.8h-68.8L114,353.6h-6V405.1z M108,342.3h3.6c11.5,0,20-3.2,25.6-9.6
		c5.6-6.4,8.4-16.4,8.4-29.8c0-14-2.9-24.1-8.8-30.4c-5.9-6.2-15.5-9.4-28.8-9.4V342.3z"/>
	<path id="XMLID_8_" fill="#FFFFFF" d="M351.7,290.3l-42.8,149.4h-21.7l-38.9-145.3c-1.6-6.1-3.1-11-4.4-14.9c-1.3-3.8-2.7-6.8-4-9
		c-1.3-2.2-2.8-3.8-4.3-5c-1.6-1.1-3.8-2.1-6.8-2.9v-6.6h57.3v6.6c-5.5,1.1-9.4,2.7-11.6,4.8c-2.2,2.1-3.3,5.1-3.3,9
		c0,3.1,0.4,6.8,1.2,11.1s1.9,9.1,3.3,14.6l26.9,105.7l43.1-151.7h22.5L403.1,408l31.6-102.1c3.8-12.4,5.8-21.2,5.8-26.5
		c0-5.4-1.1-9.4-3.4-11.8c-2.3-2.4-6-4.1-11.3-5v-6.6h52.7v6.6c-2.7,0.9-4.8,1.9-6.4,3c-1.6,1.1-3.1,2.6-4.6,4.5
		c-1.5,1.9-3.1,4.9-4.8,8.9c-1.7,4-3.8,9.4-6.1,16.2l-48.7,144.4h-19.1L351.7,290.3z"/>
</g>
<g id="SVGRepo_iconCarrier_1_">
	<path id="XMLID_13_" fill="#FFFFFF" stroke="#000000" stroke-width="1.860674e-003" d="M300.9,59.8c-11.7,3-23.6,7.4-35.3,13
		c-18,8.5-35.6,19.6-51.5,32.6c-6-2.4-12.9-2.8-19.4-1.2c-7.2,1.8-13.6,5.9-17.8,11.7c-4.2,5.8-5.8,12.9-4.2,19.6
		c0.8,3.1,2.2,5.9,4.2,8.4c-10.6,14.3-18.7,29.7-23.2,45.5c-4.7,16.5-1,31.8,8.3,41.8c9.2,10,23.8,14.4,39.2,10.5
		c15.7-4,30.8-16.9,46.6-31.5c15.8-14.6,32.1-31.3,48.3-43.3c15.4-11.4,44.7-21.6,67.8-33.2c11.5-5.8,21.6-11.8,28-19.6
		c3.2-3.9,5.4-8.5,5.9-13.5c0.5-5-0.9-10.2-3.9-15.3c-11.8-19.6-32-28.9-54.8-30c-11.4-0.5-23.5,0.9-36,3.9
		C302.5,59.4,301.7,59.6,300.9,59.8L300.9,59.8z M303.5,69.7c0.7-0.2,1.5-0.4,2.2-0.5c11.6-2.8,22.8-4.1,33.1-3.6
		c20.4,0.9,36.6,8.5,46.5,25c2.2,3.6,2.8,6.5,2.5,9.1c-0.2,2.6-1.4,5.2-3.7,8c-4.5,5.6-13.6,11.5-24.7,17
		c-18.8,9.4-43,17.9-60.8,28.5c-20.8-10.3-44.8-18.2-69.3-24.1c0.2-2.5,0.1-5-0.5-7.4c-1-3.8-2.9-7.2-5.6-10.1
		C237.7,99.7,253.7,89.7,270,82C281.2,76.7,292.5,72.5,303.5,69.7L303.5,69.7z M197.2,114.1c2.4-0.6,5-0.8,7.4-0.6
		c-3,2.7-5.9,5.5-8.7,8.3c-3.1-0.6-6.2-1.1-9.3-1.6C189.2,117.4,193.1,115.2,197.2,114.1z M215.2,118c1.8,1.7,3.1,3.8,3.6,6
		c0.2,0.8,0.3,1.7,0.3,2.6c-3.6-0.8-7.2-1.6-10.8-2.3C210.6,122.1,212.9,120,215.2,118z M182.4,129.9c1.7,0.3,3.5,0.6,5.2,0.9
		c-1.4,1.5-2.7,3.1-4,4.6c-0.4-0.8-0.7-1.6-0.9-2.4C182.4,132,182.3,131,182.4,129.9L182.4,129.9z M199.7,133
		c5.2,1,10.5,2.1,15.7,3.3c-2.6,3-6.7,5.5-11,6.6c-4.3,1.1-9.1,0.8-12.9-0.6C194.1,139.1,196.8,136,199.7,133L199.7,133z
		 M226.1,138.7c22.2,5.4,43.8,12.2,62.6,21c-16.6,12.6-32.7,29-47.8,43c-15.5,14.4-30.3,26.1-42.2,29.1c-12.2,3.1-22.5-0.4-29.2-7.6
		c-6.7-7.2-9.8-18.4-5.9-32c4-14.2,11.5-28.3,21.4-41.7c0.2,0.1,0.4,0.2,0.7,0.3c6.4,3.1,14,3.7,21.2,1.9
		c7.2-1.8,13.6-5.9,17.8-11.7C225.1,140.3,225.7,139.5,226.1,138.7L226.1,138.7z M316.9,162.9c-2.8,0.6-4.5,3.4-3.9,6.1
		c0.3,1.5,1.4,2.8,2.8,3.5c37.4,18.6,58.8,35.3,70.5,55.6c11.7,20.3,14.3,45.1,12.2,81c-0.2,2.8,2,5.2,4.8,5.4
		c2.8,0.2,5.2-2,5.4-4.8c2.1-36.7-0.3-63.9-13.6-86.8c-13.2-22.9-36.7-40.6-74.8-59.6C319.3,162.8,318.1,162.6,316.9,162.9
		L316.9,162.9z"/>
</g>
<g id="XMLID_3_">
</g>
<g id="XMLID_4_">
</g>
<g id="XMLID_11_">
</g>
<g id="XMLID_12_">
</g>
<g id="XMLID_22_">
</g>
<g id="XMLID_23_">
</g>
<g id="XMLID_24_">
</g>
<g id="XMLID_25_">
</g>
<g id="XMLID_26_">
</g>
<g id="XMLID_27_">
</g>
<g id="XMLID_28_">
</g>
<g id="XMLID_29_">
</g>
<g id="XMLID_30_">
</g>
<g id="XMLID_31_">
</g>
<g id="XMLID_32_">
</g>
</svg>
